<svg height='100px' width='100px'  fill="#000000" xmlns="http://www.w3.org/2000/svg" xmlns:xlink="http://www.w3.org/1999/xlink" version="1.1" x="0px" y="0px" viewBox="0 0 90 90" style="enable-background:new 0 0 90 90;" xml:space="preserve"><rect x="32.7647095" y="61.7412109" width="24.4707031" height="2"></rect><rect x="32.7647095" y="67.2958984" width="24.4707031" height="2"></rect><rect x="18.515625" y="52.2215576" width="1.4736938" height="1.4737549"></rect><rect x="70.0108032" y="52.2215576" width="1.4735718" height="1.4737549"></rect><path d="M59.8477173,79.7616577l7.0585938-7.319397v-5.9237671h4.9130859c3.0770874,0,5.5809937-2.5029297,5.5809937-5.5801392  V43.3739624c0-3.0771484-2.5039063-5.5810547-5.5809937-5.5810547H66.906311V10.2381592h-43.8125v27.5547485h-4.9130859  c-3.0772095,0-5.5811157,2.5039063-5.5811157,5.5810547v17.5643921c0,3.0772095,2.5039063,5.5801392,5.5811157,5.5801392h4.9130859  v13.2431641H59.8477173z M60.4229126,76.2843628v-3.2453613h3.1298828L60.4229126,76.2843628z M64.906311,71.0390015h-6.4833984  v6.7226563H25.093811V57.2977905h39.8125V71.0390015z M73.484375,55.6953125h-5.4735718v-5.4737549h5.4735718V55.6953125z   M25.093811,12.2381592h39.8125v28.5751953h-39.8125V12.2381592z M21.9893188,55.6953125H16.515625v-5.4737549h5.4736938V55.6953125  z M18.1807251,46.9549561c-1.9746094,0-3.5811157-1.6063843-3.5811157-3.5809937  c0-1.9745483,1.6065063-3.5810547,3.5811157-3.5810547h4.9130859v3.0204468h43.8125v-3.0204468h4.9130859  c1.9746094,0,3.5809937,1.6065063,3.5809937,3.5810547c0,1.9746094-1.6063843,3.5809937-3.5809937,3.5809937H18.1807251z"></path></svg>